<svg data-v-fde0c5aa="" xmlns="http://www.w3.org/2000/svg" viewBox="0 0 300 300" class="iconLeft"><!----><defs data-v-fde0c5aa=""><!----></defs><rect data-v-fde0c5aa="" fill="transparent" x="0" y="0" width="300px" height="300px" class="logo-background-square"></rect><defs data-v-fde0c5aa=""><!----></defs><g data-v-fde0c5aa="" id="68e91031-ca25-44f6-913c-51af4d42c0e5" fill="#000000" transform="matrix(2.734658804763561,0,0,2.734658804763561,101.4718257496498,121.60056899060362)"><path d="M0.71 14.01Q0.62 14.01 0.56 13.96Q0.50 13.90 0.50 13.82L0.50 13.82Q0.50 13.73 0.56 13.68Q0.62 13.62 0.71 13.62L0.71 13.62L1.32 13.62Q1.47 13.62 1.57 13.51Q1.68 13.40 1.68 13.24L1.68 13.24L1.68 5.19Q1.68 5.04 1.57 4.93Q1.47 4.82 1.32 4.82L1.32 4.82L0.71 4.82Q0.63 4.82 0.57 4.75Q0.50 4.69 0.50 4.61L0.50 4.61Q0.50 4.52 0.56 4.47Q0.62 4.41 0.71 4.41L0.71 4.41L4.07 4.41Q4.16 4.41 4.22 4.47Q4.28 4.52 4.28 4.61L4.28 4.61Q4.28 4.68 4.22 4.75Q4.16 4.82 4.07 4.82L4.07 4.82L3.44 4.82Q3.29 4.82 3.19 4.93Q3.08 5.04 3.08 5.19L3.08 5.19L3.08 13.24Q3.08 13.40 3.19 13.51Q3.30 13.62 3.44 13.62L3.44 13.62L4.07 13.62Q4.16 13.62 4.22 13.68Q4.28 13.73 4.28 13.82L4.28 13.82Q4.28 13.90 4.22 13.96Q4.16 14.01 4.07 14.01L4.07 14.01L0.71 14.01ZM5.52 14.01Q5.46 14.01 5.44 13.97Q5.42 13.93 5.42 13.85L5.42 13.85Q5.42 13.78 5.45 13.76Q5.47 13.73 5.56 13.73L5.56 13.73L5.95 13.73Q6.08 13.73 6.14 13.64Q6.20 13.54 6.20 13.41L6.20 13.41L6.20 9.00Q6.20 8.69 5.95 8.69L5.95 8.69L5.42 8.69Q5.25 8.69 5.25 8.54L5.25 8.54Q5.25 8.36 5.43 8.36L5.43 8.36L7.01 8.36Q7.22 8.36 7.22 8.58L7.22 8.58L7.22 9.42Q7.25 9.49 7.32 9.39L7.32 9.39Q7.34 9.37 7.51 9.07Q7.69 8.78 8.11 8.51Q8.54 8.23 9.07 8.23L9.07 8.23Q9.84 8.23 10.21 8.75Q10.57 9.27 10.57 9.86L10.57 9.86L10.57 13.48Q10.57 13.71 10.75 13.71L10.75 13.71L11.21 13.71Q11.30 13.71 11.34 13.73Q11.38 13.76 11.38 13.85L11.38 13.85Q11.38 13.93 11.34 13.97Q11.30 14.00 11.21 14.00L11.21 14.00L9.03 14.00Q8.93 14.00 8.93 13.85L8.93 13.85Q8.93 13.78 8.96 13.74Q8.99 13.71 9.07 13.71L9.07 13.71L9.31 13.71Q9.45 13.71 9.50 13.66Q9.55 13.62 9.55 13.48L9.55 13.48L9.55 9.90Q9.55 9.44 9.28 9.14Q9.02 8.83 8.62 8.83L8.62 8.83Q8.18 8.83 7.76 9.18Q7.35 9.52 7.22 10.35L7.22 10.35L7.22 13.51Q7.22 13.64 7.27 13.67Q7.31 13.71 7.41 13.71L7.41 13.71L7.71 13.71Q7.78 13.71 7.81 13.73Q7.83 13.76 7.83 13.85L7.83 13.85Q7.83 13.94 7.81 13.98Q7.78 14.01 7.71 14.01L7.71 14.01L5.52 14.01ZM12.61 14.01Q12.52 14.01 12.52 13.87L12.52 13.87Q12.52 13.79 12.54 13.76Q12.57 13.73 12.66 13.73L12.66 13.73L13.05 13.73Q13.17 13.73 13.24 13.64Q13.30 13.54 13.30 13.41L13.30 13.41L13.30 5.07Q13.30 4.90 13.23 4.81Q13.16 4.72 13.05 4.72L13.05 4.72L12.52 4.72Q12.35 4.72 12.35 4.58L12.35 4.58Q12.35 4.51 12.40 4.46Q12.45 4.41 12.53 4.41L12.53 4.41L14.11 4.41Q14.32 4.41 14.32 4.62L14.32 4.62L14.32 11.23Q14.90 10.74 15.68 9.93Q16.46 9.13 16.46 8.90L16.46 8.90Q16.46 8.75 16.23 8.69Q15.99 8.62 15.96 8.61L15.96 8.61Q15.93 8.61 15.88 8.60Q15.82 8.60 15.82 8.54L15.82 8.54Q15.82 8.40 16.00 8.40L16.00 8.40L18.07 8.40Q18.17 8.40 18.21 8.42Q18.24 8.44 18.24 8.51L18.24 8.51Q18.24 8.57 18.20 8.59Q18.16 8.61 18.07 8.64L18.07 8.64Q17.56 8.78 17.30 8.88Q17.05 8.97 16.84 9.17L16.84 9.17L15.64 10.28L18.03 13.48Q18.19 13.71 18.52 13.71L18.52 13.71L18.70 13.71Q18.84 13.71 18.84 13.85L18.84 13.85Q18.84 14.01 18.70 14.01L18.70 14.01L16.32 14.01Q16.23 14.01 16.23 13.87L16.23 13.87Q16.23 13.71 16.35 13.71L16.35 13.71L16.62 13.71Q16.72 13.71 16.77 13.65Q16.81 13.59 16.81 13.52L16.81 13.52Q16.81 13.45 16.77 13.41L16.77 13.41L14.91 10.98Q14.70 11.17 14.56 11.31Q14.42 11.45 14.32 11.54L14.32 11.54L14.32 13.51Q14.32 13.64 14.36 13.67Q14.41 13.71 14.50 13.71L14.50 13.71L14.97 13.71Q15.11 13.71 15.11 13.85L15.11 13.85Q15.11 14.01 14.97 14.01L14.97 14.01L12.61 14.01ZM23.02 14.20Q22.51 14.20 22.14 14.08Q21.77 13.96 21.29 13.73L21.29 13.73Q21.11 13.64 20.95 13.57Q20.79 13.51 20.66 13.51L20.66 13.51Q20.51 13.51 20.36 13.60Q20.22 13.69 20.10 13.79Q19.98 13.89 19.94 13.92L19.94 13.92Q19.89 13.94 19.81 13.94L19.81 13.94Q19.71 13.94 19.64 13.87Q19.57 13.80 19.57 13.71L19.57 13.71L19.57 11.35Q19.57 11.20 19.71 11.20L19.71 11.20Q19.84 11.20 19.91 11.35L19.91 11.35Q20.44 12.53 21.18 13.19Q21.91 13.85 23.02 13.85L23.02 13.85Q24.09 13.85 24.56 13.29Q25.03 12.74 25.14 12.15L25.14 12.15Q25.17 12.04 25.17 11.86L25.17 11.86Q25.17 10.99 24.39 10.52Q23.62 10.05 22.39 9.72L22.39 9.72Q21.73 9.52 21.16 9.25Q20.59 8.99 20.08 8.41Q19.57 7.83 19.57 6.93L19.57 6.93Q19.57 6.10 19.94 5.51Q20.30 4.91 20.92 4.61Q21.53 4.31 22.29 4.31L22.29 4.31Q23.09 4.31 24.00 4.80L24.00 4.80Q24.11 4.84 24.29 4.84L24.29 4.84Q24.60 4.84 24.78 4.66L24.78 4.66Q24.86 4.59 24.93 4.56Q24.99 4.52 25.06 4.52L25.06 4.52Q25.24 4.52 25.24 4.72L25.24 4.72L25.28 6.78Q25.28 7.00 25.14 7.00L25.14 7.00Q25.09 7.00 25.04 6.94Q24.99 6.87 24.92 6.75L24.92 6.75Q24.25 5.54 23.70 5.11L23.70 5.11Q23.10 4.62 22.34 4.62L22.34 4.62Q21.49 4.62 20.96 5.09Q20.43 5.56 20.43 6.29L20.43 6.29Q20.43 6.85 20.73 7.20Q21.04 7.55 21.54 7.75Q22.04 7.95 22.82 8.15L22.82 8.15Q23.63 8.37 24.25 8.65Q24.88 8.92 25.38 9.53Q25.87 10.15 25.87 11.17L25.87 11.17Q25.87 11.98 25.52 12.68Q25.17 13.37 24.52 13.78Q23.87 14.20 23.02 14.20L23.02 14.20ZM27.12 16.46Q27.02 16.46 27.02 16.31L27.02 16.31Q27.02 16.18 27.16 16.18L27.16 16.18L27.55 16.18Q27.68 16.18 27.74 16.09Q27.80 15.99 27.80 15.83L27.80 15.83L27.80 9.00Q27.80 8.69 27.55 8.69L27.55 8.69L27.02 8.69Q26.85 8.69 26.85 8.54L26.85 8.54Q26.85 8.36 27.03 8.36L27.03 8.36L28.62 8.36Q28.83 8.36 28.83 8.58L28.83 8.58L28.83 9.41Q28.90 9.23 29.11 8.96Q29.33 8.69 29.69 8.48Q30.06 8.27 30.53 8.27L30.53 8.27Q31.11 8.27 31.66 8.60Q32.21 8.93 32.57 9.58Q32.93 10.23 32.93 11.13L32.93 11.13Q32.93 12.10 32.51 12.75Q32.09 13.41 31.48 13.72Q30.87 14.03 30.31 14.03L30.31 14.03Q29.50 14.03 28.83 13.33L28.83 13.33L28.83 15.96Q28.83 16.09 28.87 16.13Q28.91 16.17 29.01 16.17L29.01 16.17L29.61 16.17Q29.69 16.17 29.71 16.20Q29.72 16.23 29.72 16.31L29.72 16.31Q29.72 16.46 29.61 16.46L29.61 16.46L27.12 16.46ZM30.27 13.79Q31.05 13.79 31.41 13.14Q31.77 12.49 31.77 11.17L31.77 11.17Q31.77 9.86 31.42 9.22Q31.08 8.58 30.38 8.58L30.38 8.58Q29.76 8.58 29.36 9.00Q28.95 9.41 28.83 10.00L28.83 10.00L28.83 12.81Q29.30 13.79 30.27 13.79L30.27 13.79ZM34.17 14.01Q34.12 14.01 34.10 13.97Q34.08 13.93 34.08 13.85L34.08 13.85Q34.08 13.78 34.10 13.76Q34.13 13.73 34.22 13.73L34.22 13.73L34.61 13.73Q34.73 13.73 34.80 13.64Q34.86 13.54 34.86 13.41L34.86 13.41L34.86 5.07Q34.86 4.90 34.79 4.81Q34.72 4.72 34.61 4.72L34.61 4.72L34.08 4.72Q33.91 4.72 33.91 4.58L33.91 4.58Q33.91 4.51 33.96 4.46Q34.01 4.41 34.09 4.41L34.09 4.41L35.67 4.41Q35.88 4.41 35.88 4.62L35.88 4.62L35.88 9.37Q35.88 9.46 35.94 9.49Q35.99 9.52 36.04 9.45L36.04 9.45Q36.05 9.42 36.38 8.88Q36.71 8.33 37.87 8.33L37.87 8.33Q38.74 8.33 39.14 8.86Q39.54 9.38 39.54 10.01L39.54 10.01L39.54 13.48Q39.54 13.61 39.56 13.66Q39.58 13.71 39.65 13.71L39.65 13.71L40.14 13.71Q40.24 13.71 40.27 13.73Q40.31 13.76 40.31 13.85L40.31 13.85Q40.31 14.00 40.17 14.00L40.17 14.00L37.87 14.00Q37.80 14.00 37.77 13.97Q37.74 13.93 37.74 13.85L37.74 13.85Q37.74 13.71 37.87 13.71L37.87 13.71L38.32 13.71Q38.46 13.71 38.51 13.66Q38.56 13.62 38.56 13.52L38.56 13.52L38.56 10.77Q38.56 10.21 38.49 9.82Q38.43 9.44 38.17 9.16Q37.91 8.88 37.37 8.88L37.37 8.88Q35.88 8.88 35.88 11.13L35.88 11.13L35.88 13.51Q35.88 13.64 35.92 13.67Q35.97 13.71 36.06 13.71L36.06 13.71L36.53 13.71Q36.67 13.71 36.67 13.85L36.67 13.85Q36.67 14.01 36.53 14.01L36.53 14.01L34.17 14.01ZM44.11 14.14Q43.41 14.14 42.76 13.82Q42.11 13.50 41.69 12.85Q41.27 12.19 41.27 11.27L41.27 11.27Q41.27 10.36 41.68 9.67Q42.08 8.99 42.71 8.62Q43.33 8.25 43.97 8.25L43.97 8.25Q44.79 8.25 45.32 8.65Q45.85 9.04 46.10 9.62Q46.35 10.19 46.35 10.68L46.35 10.68Q46.35 11.02 46.09 11.02L46.09 11.02L43.16 11.02Q42.77 11.02 42.60 11.07Q42.43 11.12 42.43 11.31L42.43 11.31Q42.43 12.42 42.84 13.13Q43.25 13.83 44.34 13.83L44.34 13.83L44.38 13.83Q44.84 13.82 45.27 13.57Q45.70 13.33 46.14 12.67L46.14 12.67Q46.19 12.61 46.27 12.61L46.27 12.61Q46.34 12.61 46.38 12.66Q46.42 12.70 46.38 12.78L46.38 12.78Q46.33 12.94 46.06 13.26Q45.79 13.58 45.30 13.86Q44.80 14.14 44.11 14.14L44.11 14.14ZM42.45 10.67L44.95 10.67Q45.16 10.67 45.20 10.63Q45.23 10.60 45.23 10.42L45.23 10.42Q45.23 9.81 45.02 9.16Q44.80 8.50 44.06 8.50L44.06 8.50Q43.47 8.50 43.01 9.04Q42.55 9.59 42.45 10.67L42.45 10.67ZM47.67 14.01Q47.61 14.01 47.59 13.97Q47.57 13.93 47.57 13.85L47.57 13.85Q47.57 13.78 47.60 13.76Q47.63 13.73 47.71 13.73L47.71 13.73L48.20 13.73Q48.33 13.73 48.40 13.64Q48.47 13.54 48.47 13.41L48.47 13.41L48.47 9.00Q48.47 8.85 48.39 8.77Q48.31 8.69 48.20 8.69L48.20 8.69L47.57 8.69Q47.40 8.69 47.40 8.54L47.40 8.54Q47.40 8.36 47.59 8.36L47.59 8.36L49.28 8.36Q49.50 8.36 49.50 8.58L49.50 8.58L49.50 9.72Q49.50 9.63 49.67 9.26Q49.84 8.89 50.20 8.56Q50.57 8.23 51.16 8.23L51.16 8.23Q51.67 8.23 51.91 8.48Q52.15 8.74 52.15 9.09L52.15 9.09Q52.15 9.38 51.98 9.60Q51.81 9.81 51.55 9.81L51.55 9.81Q51.30 9.81 51.13 9.65Q50.97 9.49 50.97 9.24L50.97 9.24Q50.97 8.99 51.11 8.83L51.11 8.83Q51.18 8.76 51.18 8.71L51.18 8.71Q51.18 8.64 51.10 8.59Q51.02 8.54 50.88 8.54L50.88 8.54Q50.57 8.54 50.25 8.81Q49.94 9.09 49.72 9.63Q49.50 10.16 49.50 10.91L49.50 10.91L49.50 13.51Q49.50 13.64 49.53 13.67Q49.56 13.71 49.66 13.71L49.66 13.71L50.37 13.71Q50.44 13.71 50.50 13.74Q50.55 13.78 50.55 13.85L50.55 13.85Q50.55 14.01 50.37 14.01L50.37 14.01L47.67 14.01ZM55.68 14.14Q54.98 14.14 54.33 13.82Q53.68 13.50 53.26 12.85Q52.84 12.19 52.84 11.27L52.84 11.27Q52.84 10.36 53.24 9.67Q53.65 8.99 54.27 8.62Q54.89 8.25 55.54 8.25L55.54 8.25Q56.35 8.25 56.88 8.65Q57.41 9.04 57.67 9.62Q57.92 10.19 57.92 10.68L57.92 10.68Q57.92 11.02 57.65 11.02L57.65 11.02L54.73 11.02Q54.33 11.02 54.17 11.07Q54.00 11.12 54.00 11.31L54.00 11.31Q54.00 12.42 54.40 13.13Q54.81 13.83 55.90 13.83L55.90 13.83L55.94 13.83Q56.41 13.82 56.83 13.57Q57.26 13.33 57.71 12.67L57.71 12.67Q57.75 12.61 57.83 12.61L57.83 12.61Q57.90 12.61 57.95 12.66Q57.99 12.70 57.95 12.78L57.95 12.78Q57.89 12.94 57.62 13.26Q57.36 13.58 56.86 13.86Q56.36 14.14 55.68 14.14L55.68 14.14ZM54.01 10.67L56.52 10.67Q56.73 10.67 56.76 10.63Q56.80 10.60 56.80 10.42L56.80 10.42Q56.80 9.81 56.58 9.16Q56.36 8.50 55.62 8.50L55.62 8.50Q55.03 8.50 54.57 9.04Q54.11 9.59 54.01 10.67L54.01 10.67Z"></path></g><defs data-v-fde0c5aa=""><linearGradient data-v-fde0c5aa="" gradientTransform="rotate(25)" id="8da0debe-b9c6-42c1-bb20-9f56a2b6c8cc" x1="0%" y1="0%" x2="100%" y2="0%"><stop data-v-fde0c5aa="" offset="0%" stop-color="#E90DCA" stop-opacity="1"></stop><stop data-v-fde0c5aa="" offset="100%" stop-color="#1536F1" stop-opacity="1"></stop></linearGradient></defs><g data-v-fde0c5aa="" id="4bac9937-c2ab-4cb0-8f83-c1219adb2a09" stroke="none" fill="url(#8da0debe-b9c6-42c1-bb20-9f56a2b6c8cc)" transform="matrix(1.5574735985009869,0,0,1.5574735985009869,40,125.0804224239842)"><path d="M15.965 16.258l.707-.707 10.39 10.39-.707.707z"></path><path d="M4.935 26.357L26.018 5.274l.707.707L5.642 27.065z"></path><path d="M31 1v4.194h-4.194V1H31m1-1h-6.194v6.194H32V0zM31 26.806V31h-4.194v-4.194H31m1-1h-6.194V32H32v-6.194zM5.194 26.806V31H1v-4.194h4.194m1-1H0V32h6.194v-6.194z"></path></g><!----></svg>